<svg xmlns="http://www.w3.org/2000/svg" viewBox="0 0 64 64"><g id="_1.sun" data-name="1.sun"><path d="M32,17.71A14.29,14.29,0,0,0,17.71,32c.66,18.91,27.92,18.91,28.58,0A14.29,14.29,0,0,0,32,17.71ZM32,44A12,12,0,0,1,20,32c.55-15.89,23.45-15.88,24,0A12,12,0,0,1,32,44Z"/><path d="M32,16.19a1,1,0,0,0,1-1v-5a1,1,0,1,0-2,0v5A1,1,0,0,0,32,16.19Z"/><path d="M43.88,21.12a1,1,0,0,0,.71-.3l3.57-3.56c.93-.9-.51-2.35-1.42-1.42l-3.56,3.57A1,1,0,0,0,43.88,21.12Z"/><path d="M53.85,31h-5a1,1,0,0,0,0,2h5A1,1,0,0,0,53.85,31Z"/><path d="M44.59,43.18c-.9-.93-2.35.51-1.41,1.41l3.56,3.57c.9.93,2.35-.51,1.42-1.42Z"/><path d="M32,47.81a1,1,0,0,0-1,1v5a1,1,0,0,0,2,0v-5A1,1,0,0,0,32,47.81Z"/><path d="M19.41,43.18l-3.57,3.56c-.93.9.51,2.35,1.42,1.42l3.56-3.57C21.75,43.69,20.31,42.24,19.41,43.18Z"/><path d="M16.19,32a1,1,0,0,0-1-1h-5a1,1,0,1,0,0,2h5A1,1,0,0,0,16.19,32Z"/><path d="M19.41,20.82c.9.93,2.34-.51,1.41-1.41l-3.56-3.57c-.9-.93-2.35.51-1.42,1.42Z"/></g></svg>